<?xml version="1.0" encoding="UTF-8" standalone="no"?>
<svg
   xmlns:dc="http://purl.org/dc/elements/1.1/"
   xmlns:cc="http://creativecommons.org/ns#"
   xmlns:rdf="http://www.w3.org/1999/02/22-rdf-syntax-ns#"
   xmlns:svg="http://www.w3.org/2000/svg"
   xmlns="http://www.w3.org/2000/svg"
   xmlns:sodipodi="http://sodipodi.sourceforge.net/DTD/sodipodi-0.dtd"
   xmlns:inkscape="http://www.inkscape.org/namespaces/inkscape"
   xml:space="preserve"
   style="enable-background:new 0 0 512.035 512.035;"
   viewBox="0 0 512.035 512.035"
   y="0px"
   x="0px"
   id="Layer_1"
   version="1.1"
   sodipodi:docname="object_definednote.svg"
   inkscape:version="0.92.5 (2060ec1f9f, 2020-04-08)"><sodipodi:namedview
   pagecolor="#ffffff"
   bordercolor="#666666"
   borderopacity="1"
   objecttolerance="10"
   gridtolerance="10"
   guidetolerance="10"
   inkscape:pageopacity="0"
   inkscape:pageshadow="2"
   inkscape:window-width="1920"
   inkscape:window-height="1011"
   id="namedview27"
   showgrid="false"
   inkscape:zoom="0.92181203"
   inkscape:cx="107.06366"
   inkscape:cy="282.80165"
   inkscape:window-x="1920"
   inkscape:window-y="1080"
   inkscape:window-maximized="1"
   inkscape:current-layer="Layer_1" /><metadata
   id="metadata57"><rdf:RDF><cc:Work
       rdf:about=""><dc:format>image/svg+xml</dc:format><dc:type
         rdf:resource="http://purl.org/dc/dcmitype/StillImage" /><dc:title /></cc:Work></rdf:RDF></metadata><defs
   id="defs55">
	

		
	
			
			
			
			
			
			
			
		
	
	
	
	
	
	
</defs>
<path
   style="fill:#cb4f24;fill-opacity:1"
   d="M 503.484,42.701 V 21.368 c 0,-11.947 -9.387,-21.333 -21.333,-21.333 h -8.533 c -11.947,0 -21.333,9.387 -21.333,21.333 v 21.333 c -5.12,0 -8.533,3.413 -8.533,8.533 v 2.987 l -29.867,14.933 c -0.69,0.345 -1.306,0.835 -1.843,1.424 -1.539,1.496 -2.424,3.654 -2.424,6.256 v 110.933 c 0,5.12 3.413,8.533 8.533,8.533 5.12,0 8.533,-3.413 8.533,-8.533 V 81.101 l 17.067,-8.533 v 226.133 136.533 c 0,2.287 0.685,4.229 1.894,5.683 l 16.026,48.077 c 0.853,3.413 4.267,5.973 7.68,5.973 v 8.533 c 0,5.12 3.413,8.533 8.533,8.533 5.12,0 8.533,-3.413 8.533,-8.533 v -8.533 c 3.413,0 6.827,-2.56 7.68,-5.973 l 16.026,-48.077 c 1.21,-1.454 1.894,-3.396 1.894,-5.683 V 298.701 51.235 c 0,-5.12 -3.413,-8.534 -8.533,-8.534 z m -42.667,17.067 h 34.133 v 230.4 h -34.133 z m 34.134,264.533 h -34.133 v -17.067 h 34.133 z m -34.134,34.134 v -17.067 h 34.133 v 17.067 z m 34.134,17.066 v 17.067 h -34.133 v -17.067 z m -34.134,51.2 v -17.067 h 34.133 v 17.067 z m 8.534,-405.333 c 0,-2.56 1.707,-4.267 4.267,-4.267 h 8.533 c 2.56,0 4.267,1.707 4.267,4.267 v 21.333 h -17.067 z m 11.093,456.533 h -5.12 l -11.093,-34.133 h 27.307 z"
   id="path14" />
<g
   id="g22">
</g>
<g
   id="g24">
</g>
<g
   id="g26">
</g>
<g
   id="g28">
</g>
<g
   id="g30">
</g>
<g
   id="g32">
</g>
<g
   id="g34">
</g>
<g
   id="g36">
</g>
<g
   id="g38">
</g>
<g
   id="g40">
</g>
<g
   id="g42">
</g>
<g
   id="g44">
</g>
<g
   id="g46">
</g>
<g
   id="g48">
</g>
<g
   id="g50">
</g>
<g
   id="g845"
   transform="matrix(0.75429453,0,0,0.75429453,-0.87836814,53.991254)"
   style="fill:#ffffff;fill-opacity:1">
	<polygon
   style="fill:#ffffff;fill-opacity:1"
   points="427.366,326.983 498.348,256 427.366,185.017 "
   id="polygon837" />
	<polygon
   style="fill:#ffffff;fill-opacity:1"
   points="326.983,84.634 256,13.652 185.018,84.634 "
   id="polygon839" />
	<polygon
   style="fill:#ffffff;fill-opacity:1"
   points="185.018,427.366 256,498.348 326.983,427.366 "
   id="polygon841" />
	<polygon
   style="fill:#ffffff;fill-opacity:1"
   points="84.635,185.017 13.652,256 84.635,326.983 "
   id="polygon843" />
</g><path
   id="path847"
   d="m 256.017,375.501 c -0.004,-0.0535 -0.003,-0.10636 -0.008,-0.15991 -0.0445,-0.45635 -0.12596,-0.90138 -0.22855,-1.33887 -0.0219,-0.0935 -0.0475,-0.18631 -0.0724,-0.27985 -0.11541,-0.43673 -0.25118,-0.86517 -0.42014,-1.27702 -0.005,-0.0121 -0.008,-0.0234 -0.0121,-0.0362 -0.002,-0.005 -0.004,-0.009 -0.006,-0.0143 -0.0385,-0.0905 -0.0822,-0.17726 -0.12219,-0.26552 -0.0852,-0.19083 -0.17424,-0.3779 -0.27004,-0.56119 -0.0513,-0.0981 -0.10635,-0.19386 -0.16066,-0.28965 -0.10183,-0.18103 -0.2097,-0.35754 -0.32209,-0.53102 -0.0505,-0.0769 -0.0996,-0.15539 -0.15237,-0.23308 -0.3432,-0.49859 -0.72713,-0.96173 -1.14577,-1.3879 -0.0536,-0.0536 -0.10786,-0.10636 -0.16293,-0.1584 -0.16368,-0.15992 -0.33264,-0.31304 -0.50688,-0.46012 -0.0671,-0.0566 -0.13351,-0.11466 -0.20291,-0.16972 -0.19536,-0.15765 -0.39676,-0.30775 -0.60268,-0.45107 -0.0422,-0.0287 -0.0822,-0.0618 -0.12446,-0.0898 -0.2376,-0.15991 -0.48501,-0.307 -0.73619,-0.44654 -0.0958,-0.0528 -0.19385,-0.10108 -0.2904,-0.15162 -0.16821,-0.0867 -0.33793,-0.16896 -0.51066,-0.2459 -0.11088,-0.0498 -0.22176,-0.0988 -0.33491,-0.14407 -0.1946,-0.0792 -0.39223,-0.1501 -0.59136,-0.21648 -0.0868,-0.0287 -0.17198,-0.0626 -0.25948,-0.0898 -0.27079,-0.0837 -0.54762,-0.15237 -0.82671,-0.21346 -0.10409,-0.0219 -0.20894,-0.04 -0.31303,-0.0596 -0.20969,-0.0392 -0.4224,-0.0709 -0.63662,-0.0965 -0.0988,-0.0121 -0.19763,-0.0249 -0.29795,-0.034 -0.31002,-0.0279 -0.62229,-0.0475 -0.93683,-0.0475 H 138.68045 73.258224 v -65.42072 -107.08116 -7.5e-4 c 0,-0.31605 -0.01961,-0.62833 -0.04752,-0.93834 -0.0091,-0.0981 -0.02187,-0.19461 -0.03319,-0.29267 -0.02565,-0.21648 -0.05884,-0.43146 -0.09881,-0.64492 -0.01886,-0.10183 -0.03621,-0.20366 -0.05733,-0.30474 -0.06185,-0.28437 -0.132002,-0.56496 -0.216483,-0.84103 -0.02338,-0.0769 -0.05356,-0.15237 -0.0792,-0.22931 -0.06864,-0.20819 -0.14407,-0.41411 -0.225534,-0.61701 -0.043,-0.10787 -0.09051,-0.21422 -0.138036,-0.32058 -0.07995,-0.18027 -0.165945,-0.35753 -0.25646,-0.53253 -0.04601,-0.0905 -0.09127,-0.18254 -0.141053,-0.27079 -0.141053,-0.25571 -0.291158,-0.50538 -0.454085,-0.74826 -0.02037,-0.0309 -0.0445,-0.0596 -0.06487,-0.0905 -0.151613,-0.2195 -0.310769,-0.43221 -0.478977,-0.64039 -0.04978,-0.0619 -0.101075,-0.12069 -0.151613,-0.18103 -0.155385,-0.18405 -0.316804,-0.36282 -0.485766,-0.5348 -0.04526,-0.046 -0.08976,-0.0935 -0.135773,-0.1403 -0.431456,-0.42617 -0.901382,-0.81539 -1.406759,-1.16161 -0.06562,-0.0453 -0.132756,-0.0875 -0.199888,-0.13049 -0.185556,-0.12145 -0.375639,-0.23685 -0.570247,-0.34623 -0.08523,-0.0483 -0.171225,-0.0965 -0.257214,-0.1418 -0.202151,-0.10636 -0.408828,-0.20517 -0.618522,-0.2987 -0.0709,-0.0317 -0.140298,-0.0671 -0.211202,-0.0966 -0.0091,-0.003 -0.01659,-0.008 -0.02565,-0.0113 -0.02037,-0.008 -0.04224,-0.0121 -0.06261,-0.0204 -0.401284,-0.16369 -0.816901,-0.29569 -1.241568,-0.40808 -0.09881,-0.0256 -0.196871,-0.0528 -0.295684,-0.0762 -0.434473,-0.10108 -0.874981,-0.18254 -1.329067,-0.22629 -0.05884,-0.006 -0.116161,-0.004 -0.174242,-0.009 -0.276826,-0.0219 -0.555161,-0.0422 -0.837267,-0.0422 -0.11239,0 -0.220254,0.0136 -0.331889,0.0166 -0.127476,0.004 -0.253443,0.0106 -0.380919,0.0196 -0.416371,0.0279 -0.825953,0.0762 -1.226483,0.15236 -0.02791,0.005 -0.05657,0.008 -0.08523,0.0136 -0.448051,0.0882 -0.880262,0.21422 -1.305684,0.35904 -0.09051,0.0309 -0.180276,0.0649 -0.270038,0.0988 -0.386953,0.14482 -0.764854,0.30775 -1.129933,0.49632 -0.04149,0.0219 -0.08448,0.0392 -0.125967,0.0611 -0.392233,0.21045 -0.764855,0.45107 -1.124653,0.70828 -0.09278,0.0649 -0.182539,0.13351 -0.271546,0.20291 -0.34773,0.26702 -0.683391,0.54762 -0.994915,0.85688 -0.01131,0.0113 -0.02489,0.0196 -0.03621,0.0309 L 2.1380557,239.80945 c -4.0211442,4.02114 -4.0211442,10.54126 0,14.56392 l 50.5249103,50.52491 v 71.45356 c 0,5.68663 4.611003,10.29763 10.297629,10.29763 h 71.454325 l 50.52491,50.52567 c 1.93174,1.93099 4.55066,3.01642 7.2812,3.01642 2.73055,0 5.34946,-1.08543 7.28121,-3.01642 l 53.54058,-53.54209 c 0.004,-0.004 0.008,-0.0106 0.0121,-0.0158 0.31831,-0.31907 0.6072,-0.66604 0.88252,-1.02584 0.0641,-0.0845 0.12748,-0.16821 0.18857,-0.25344 0.26174,-0.36433 0.50538,-0.74374 0.71885,-1.14125 0.0151,-0.0302 0.0279,-0.0618 0.043,-0.0913 0.19687,-0.37564 0.36433,-0.76712 0.51368,-1.16765 0.0309,-0.0837 0.0626,-0.16444 0.0905,-0.24816 0.14709,-0.4292 0.27381,-0.86669 0.36357,-1.31926 0.004,-0.0204 0.005,-0.0415 0.009,-0.0611 0.0792,-0.40883 0.12672,-0.82822 0.15539,-1.25213 0.008,-0.1237 0.0143,-0.2459 0.0188,-0.3696 0.004,-0.11315 0.0174,-0.22328 0.0174,-0.33793 0.003,-0.28512 -0.0166,-0.56723 -0.0392,-0.84858 z M 23.981671,247.09065 52.662966,218.40936 v 57.36108 z m 168.239359,168.23786 -28.68129,-28.6813 h 57.36183 z"
   style="fill:#00384e;fill-opacity:1;stroke-width:0.75429451"
   inkscape:connector-curvature="0" /><path
   id="path849"
   d="m 382.30476,239.80945 -50.52491,-50.52567 v -71.45356 c 0,-5.68663 -4.611,-10.29763 -10.29763,-10.29763 H 250.0279 L 199.50224,57.007678 c -1.93175,-1.930994 -4.54991,-3.016424 -7.28121,-3.016424 -2.73054,0 -5.34946,1.08543 -7.2812,3.016424 L 134.41492,107.53334 H 62.960595 c -5.686626,0 -10.297629,4.61101 -10.297629,10.29763 0,5.68663 4.611003,10.29763 10.297629,10.29763 H 311.18459 v 65.42072 107.08116 7.5e-4 c 0,0.31605 0.0196,0.62833 0.0475,0.93835 0.009,0.0981 0.0219,0.1946 0.0332,0.29266 0.0256,0.21648 0.0588,0.43146 0.0988,0.64492 0.0188,0.10183 0.0362,0.20366 0.0573,0.30474 0.0618,0.28437 0.132,0.56497 0.21648,0.84104 0.0234,0.0769 0.0536,0.15237 0.0792,0.2293 0.0686,0.20819 0.14407,0.41411 0.22553,0.61702 0.043,0.10786 0.0905,0.21422 0.13804,0.32057 0.0799,0.18028 0.16594,0.35754 0.25646,0.53253 0.046,0.0905 0.0913,0.18254 0.14105,0.27079 0.14105,0.25571 0.29116,0.50538 0.45408,0.74827 0.0204,0.0309 0.0445,0.0596 0.0649,0.0905 0.15162,0.2195 0.31077,0.43221 0.47898,0.6404 0.0498,0.0618 0.10108,0.12068 0.15161,0.18103 0.15539,0.18405 0.31756,0.36281 0.48577,0.53479 0.0453,0.046 0.0898,0.0935 0.13577,0.1403 0.43146,0.42618 0.90138,0.81539 1.40676,1.16161 0.0656,0.0453 0.13276,0.0875 0.19989,0.1305 0.18556,0.12144 0.37564,0.23685 0.57025,0.34622 0.0852,0.0483 0.17122,0.0965 0.25721,0.14181 0.20215,0.10635 0.40883,0.20516 0.61852,0.2987 0.0709,0.0317 0.1403,0.0671 0.2112,0.0966 0.009,0.003 0.0166,0.008 0.0256,0.0113 0.0822,0.0339 0.1667,0.0573 0.24892,0.0883 0.22779,0.0875 0.45408,0.17425 0.68867,0.2459 0.11842,0.0362 0.23911,0.0611 0.35829,0.0913 0.20517,0.0543 0.40807,0.11239 0.61777,0.15312 0.19838,0.04 0.39751,0.0641 0.5974,0.0905 0.13275,0.0189 0.26325,0.0453 0.39826,0.0588 0.34321,0.034 0.68566,0.0528 1.02735,0.0528 0.34396,0 0.68792,-0.0189 1.02962,-0.0528 0.1501,-0.0151 0.29643,-0.0445 0.44503,-0.0649 0.18254,-0.0264 0.36659,-0.0475 0.54762,-0.0845 0.20517,-0.0415 0.4043,-0.0965 0.60419,-0.1501 0.12219,-0.0317 0.2459,-0.0573 0.36734,-0.095 0.20592,-0.0626 0.40656,-0.13879 0.60721,-0.21422 0.11465,-0.0422 0.2293,-0.0784 0.3432,-0.12597 0.18556,-0.0769 0.36357,-0.1667 0.54234,-0.2542 0.12446,-0.0596 0.25118,-0.11465 0.37262,-0.17952 0.15765,-0.0845 0.307,-0.18027 0.45936,-0.27305 0.13729,-0.0822 0.27683,-0.15991 0.40959,-0.24892 0.13275,-0.0882 0.25721,-0.18857 0.38544,-0.28286 0.14332,-0.10636 0.28965,-0.20592 0.42769,-0.31907 0.1237,-0.10183 0.2376,-0.21497 0.35602,-0.32208 0.12899,-0.11616 0.26174,-0.22553 0.38545,-0.34773 l 53.54058,-53.54058 c 4.02718,-4.01813 4.02718,-10.53976 0.006,-14.5609 z M 163.53974,107.53334 192.22103,78.851293 220.90233,107.53259 H 163.53974 Z M 331.7791,275.77119 v -57.36108 l 28.68129,28.6813 z"
   style="fill:#00384e;fill-opacity:1;stroke-width:0.75429451"
   inkscape:connector-curvature="0" /><path
   id="path851"
   d="m 192.22103,204.66913 c -18.73743,0 -33.98172,-15.24429 -33.98172,-33.98172 0,-5.68663 4.611,-10.29763 10.29763,-10.29763 5.68662,0 10.29763,4.611 10.29763,10.29763 0,7.38152 6.00569,13.38646 13.38646,13.38646 7.38153,0 13.38647,-6.00569 13.38647,-13.38646 0,-7.38078 -6.0057,-13.38647 -13.38647,-13.38647 -5.68662,0 -10.29763,-4.611 -10.29763,-10.29763 0,-5.68662 4.61101,-10.29763 10.29763,-10.29763 18.73743,0 33.98172,15.2443 33.98172,33.98173 0,18.73743 -15.24429,33.98172 -33.98172,33.98172 z"
   style="fill:#cb4f24;fill-opacity:1;stroke-width:0.75429451"
   inkscape:connector-curvature="0" /><path
   id="path853"
   d="m 268.60768,248.94546 h -152.7733 c -5.68663,0 -10.29763,-4.611 -10.29763,-10.29762 0,-5.68663 4.611,-10.29763 10.29763,-10.29763 h 152.77255 c 5.68663,0 10.29763,4.611 10.29763,10.29763 0,5.68662 -4.61025,10.29762 -10.29688,10.29762 z"
   style="fill:#cb4f24;fill-opacity:1;stroke-width:0.75429451"
   inkscape:connector-curvature="0" /><path
   id="path855"
   d="m 268.60768,295.79847 h -152.7733 c -5.68663,0 -10.29763,-4.611 -10.29763,-10.29763 0,-5.68663 4.611,-10.29763 10.29763,-10.29763 h 152.77255 c 5.68663,0 10.29763,4.611 10.29763,10.29763 0,5.68663 -4.61025,10.29763 -10.29688,10.29763 z"
   style="fill:#cb4f24;fill-opacity:1;stroke-width:0.75429451"
   inkscape:connector-curvature="0" /><path
   id="path857"
   d="m 196.47902,342.65223 h -80.64313 c -5.68663,0 -10.29763,-4.611 -10.29763,-10.29763 0,-5.68663 4.611,-10.29763 10.29763,-10.29763 h 80.64389 c 5.68662,0 10.29763,4.611 10.29763,10.29763 -7.6e-4,5.68663 -4.61176,10.29763 -10.29839,10.29763 z"
   style="fill:#cb4f24;fill-opacity:1;stroke-width:0.75429451"
   inkscape:connector-curvature="0" /><g
   id="g861"
   transform="matrix(0.75429453,0,0,0.75429453,-0.87836814,53.991254)">
</g><g
   id="g863"
   transform="matrix(0.75429453,0,0,0.75429453,-0.87836814,53.991254)">
</g><g
   id="g865"
   transform="matrix(0.75429453,0,0,0.75429453,-0.87836814,53.991254)">
</g><g
   id="g867"
   transform="matrix(0.75429453,0,0,0.75429453,-0.87836814,53.991254)">
</g><g
   id="g869"
   transform="matrix(0.75429453,0,0,0.75429453,-0.87836814,53.991254)">
</g><g
   id="g871"
   transform="matrix(0.75429453,0,0,0.75429453,-0.87836814,53.991254)">
</g><g
   id="g873"
   transform="matrix(0.75429453,0,0,0.75429453,-0.87836814,53.991254)">
</g><g
   id="g875"
   transform="matrix(0.75429453,0,0,0.75429453,-0.87836814,53.991254)">
</g><g
   id="g877"
   transform="matrix(0.75429453,0,0,0.75429453,-0.87836814,53.991254)">
</g><g
   id="g879"
   transform="matrix(0.75429453,0,0,0.75429453,-0.87836814,53.991254)">
</g><g
   id="g881"
   transform="matrix(0.75429453,0,0,0.75429453,-0.87836814,53.991254)">
</g><g
   id="g883"
   transform="matrix(0.75429453,0,0,0.75429453,-0.87836814,53.991254)">
</g><g
   id="g885"
   transform="matrix(0.75429453,0,0,0.75429453,-0.87836814,53.991254)">
</g><g
   id="g887"
   transform="matrix(0.75429453,0,0,0.75429453,-0.87836814,53.991254)">
</g><g
   id="g889"
   transform="matrix(0.75429453,0,0,0.75429453,-0.87836814,53.991254)">
</g></svg>